<svg width="80" height="80" viewBox="0 0 80 80" fill="none" xmlns="http://www.w3.org/2000/svg">
<g clip-path="url(#clip0_120_6)">
<path d="M62.3438 60.0313C58.8906 54.0313 52.4063 50 45 50H35C27.5937 50 21.1094 54.0313 17.6562 60.0313C23.1563 66.1563 31.125 70 40 70C48.875 70 56.8437 66.1406 62.3438 60.0313ZM80 40C80 62.0937 62.0937 80 40 80C17.9063 80 0 62.0937 0 40C0 17.9063 17.9063 0 40 0C62.0937 0 80 17.9063 80 40ZM40 42.5C46.2187 42.5 51.25 37.4687 51.25 31.25C51.25 25.0313 46.2187 20 40 20C33.7813 20 28.75 25.0313 28.75 31.25C28.75 37.4687 33.7813 42.5 40 42.5Z" fill="white"/>
</g>
<defs>
<clipPath id="clip0_120_6">
<rect width="80" height="80" fill="white"/>
</clipPath>
</defs>
</svg>
