<svg width="72" height="73" viewBox="0 0 72 73" fill="none" xmlns="http://www.w3.org/2000/svg">
<path d="M27.5 7H8C5.79086 7 4 8.79086 4 11V65C4 67.2091 5.79086 69 8 69H61.5C63.7091 69 65.5 67.2091 65.5 65V46.5" stroke="white" stroke-width="8" stroke-linecap="round"/>
<path d="M29.3718 38.3854C28.2003 39.557 28.2003 41.4565 29.3718 42.6281C30.5434 43.7996 32.4429 43.7996 33.6145 42.6281L29.3718 38.3854ZM71.5067 3.49323C71.5067 1.83638 70.1635 0.493234 68.5067 0.493234H41.5067C39.8498 0.493234 38.5067 1.83638 38.5067 3.49323C38.5067 5.15009 39.8498 6.49323 41.5067 6.49323L65.5067 6.49323L65.5067 30.4932C65.5067 32.1501 66.8498 33.4932 68.5067 33.4932C70.1635 33.4932 71.5067 32.1501 71.5067 30.4932V3.49323ZM33.6145 42.6281L70.628 5.61455L66.3854 1.37191L29.3718 38.3854L33.6145 42.6281Z" fill="white"/>
</svg>
