<svg width="191" height="89" viewBox="0 0 191 89" fill="none" xmlns="http://www.w3.org/2000/svg">
<path opacity="0.5" d="M34.3145 88.4927C36.2191 88.8228 38.0307 87.5463 38.3607 85.6417L43.7387 54.6042C44.0687 52.6996 42.7923 50.888 40.8877 50.558C38.9831 50.228 37.1715 51.5044 36.8415 53.4091L32.061 80.9979L4.47212 76.2175C2.56751 75.8875 0.755985 77.1639 0.425959 79.0685C0.0959287 80.9731 1.37239 82.7847 3.277 83.1147L34.3145 88.4927ZM190.634 49.8507C157.992 32.9486 127.353 19.9745 100.868 11.6579C74.4757 3.3704 51.8726 -0.401483 35.4437 1.42399C27.2061 2.3393 20.2028 4.69582 15.0836 8.91038C9.8595 13.2113 6.90872 19.1947 6.41771 26.6267C5.93488 33.9353 7.82424 42.5777 12.0176 52.5205C16.2233 62.4927 22.8356 73.9818 32.051 87.0601L37.7731 83.0281C28.7394 70.2075 22.4172 59.1656 18.4674 49.8003C14.5053 40.4057 13.0183 32.9042 13.4025 27.0882C13.7786 21.3957 15.9384 17.2738 19.5328 14.3145C23.2322 11.2689 28.7554 9.21023 36.2167 8.38118C51.1857 6.71793 72.6702 10.1405 98.7708 18.3364C124.779 26.5032 155.038 39.3015 187.415 56.0668L190.634 49.8507Z" fill="#EDDD2D"/>
</svg>
